<?xml version="1.0" encoding="UTF-8"?>
<!DOCTYPE svg
          PUBLIC "-//W3C//DTD SVG 1.1//EN" "http://www.w3.org/Graphics/SVG/1.1/DTD/svg11.dtd">
<!-- Creator: CorelDRAW X7 -->
<svg xmlns="http://www.w3.org/2000/svg" xml:space="preserve" width="44px"
     height="44px" version="1.1"
     style="shape-rendering:geometricPrecision; text-rendering:geometricPrecision; image-rendering:optimizeQuality; fill-rule:evenodd; clip-rule:evenodd"
     viewBox="0 0 20320 20320"
     xmlns:xlink="http://www.w3.org/1999/xlink">
  <defs>
    <style type="text/css">
      <![CDATA[
      .fil0 {
        fill: none
      }

      .fil3 {
        fill: #FEFEFE
      }

      .fil1 {
        fill: #332C2B
      }

      .fil2 {
        fill: #FEFEFE;
        fill-opacity: 0.250980
      }

      .fil4 {
        fill: #FEFEFE;
        fill-opacity: 0.309804
      }
      ]]>
    </style>
  </defs>
  <g id="Layer_x0020_1">
    <metadata id="CorelCorpID_0Corel-Layer" />
    <rect class="fil0" width="20320" height="20320" />
    <g id="_2467742940944">
      <rect class="fil1" x="2456" y="2456" width="15408" height="15408"
            rx="3058" ry="3058" />
      <path class="fil2"
            d="M5172 9849l3279 0 0 -679c0,-167 137,-303 304,-303l2338 0c167,0 303,136 303,303l0 2338c0,167 -136,304 -303,304l-2338 0c-167,0 -304,-137 -304,-304l0 -678 -3279 0c243,2434 2278,4334 4752,4334 2638,0 4776,-2160 4776,-4825 0,-2664 -2138,-4824 -4776,-4824 -2474,0 -4509,1900 -4752,4334z" />
      <path class="fil3"
            d="M5396 9670l3279 0 0 -679c0,-167 137,-303 304,-303l2338 0c167,0 303,136 303,303l0 2338c0,167 -136,303 -303,303l-2338 0c-167,0 -304,-136 -304,-303l0 -679 -3279 0c243,2435 2278,4334 4752,4334 2638,0 4776,-2160 4776,-4824 0,-2664 -2138,-4824 -4776,-4824 -2474,0 -4509,1900 -4752,4334z" />
      <path class="fil4"
            d="M14469 3716c1170,0 2127,971 2127,2157l0 8926c0,1186 -957,2156 -2127,2156l705 0c1170,0 2128,-970 2128,-2156l0 -9642c0,-1186 -958,-2156 -2128,-2156l-9512 0c-1170,0 -2127,970 -2127,2156l0 716c0,-1186 957,-2157 2127,-2157l8807 0z" />
    </g>
  </g>
</svg>
